<svg xmlns="http://www.w3.org/2000/svg" viewBox="0 0 512 512">
  <defs>
    <linearGradient id="bg" x1="76" y1="64" x2="442" y2="462" gradientUnits="userSpaceOnUse">
      <stop stop-color="#7c3aed"/>
      <stop offset="0.55" stop-color="#2563eb"/>
      <stop offset="1" stop-color="#0f766e"/>
    </linearGradient>
    <linearGradient id="wallet" x1="118" y1="158" x2="408" y2="372" gradientUnits="userSpaceOnUse">
      <stop stop-color="#ffffff"/>
      <stop offset="1" stop-color="#dbeafe"/>
    </linearGradient>
  </defs>
  <rect width="512" height="512" rx="112" fill="url(#bg)"/>
  <path fill="#0f172a" opacity="0.18" d="M128 181c0-31 25-56 56-56h169c24 0 43 19 43 43v17H167c-22 0-39 18-39 39v130c0 31 25 56 56 56h226c-10 19-30 32-53 32H184c-31 0-56-25-56-56V181Z"/>
  <path fill="url(#wallet)" d="M112 217c0-37 30-67 67-67h183c22 0 40 18 40 40v20h16c18 0 32 14 32 32v118c0 18-14 32-32 32H179c-37 0-67-30-67-67V217Z"/>
  <path fill="#4338ca" d="M402 246h25c13 0 23 10 23 23v64c0 13-10 23-23 23h-25c-31 0-56-25-56-56s25-54 56-54Z"/>
  <circle cx="401" cy="301" r="18" fill="#fbbf24"/>
  <path fill="#22c55e" d="M168 190h166c13 0 23 10 23 23H179c-18 0-32 14-32 32v74c0 18 14 32 32 32h144c8 0 14 6 14 14s-6 14-14 14H179c-34 0-61-27-61-61v-67c0-34 27-61 61-61Z" opacity="0.18"/>
  <path fill="#fbbf24" d="M157 132h156c24 0 44 20 44 44v12H181c-28 0-51 23-51 51v-80c0-15 12-27 27-27Z"/>
  <path fill="#ffffff" opacity="0.55" d="M154 235c0-15 12-27 27-27h92c8 0 14 6 14 14s-6 14-14 14h-92c-7 0-13 6-13 13 0 8-6 14-14 14s-14-6-14-14v-14Z"/>
</svg>
